<svg version="1.1" id="Layer_1" xmlns="http://www.w3.org/2000/svg" xmlns:xlink="http://www.w3.org/1999/xlink" x="0px" y="0px"
	 width="100%" viewBox="0 0 128 128" enable-background="new 0 0 128 128" xml:space="preserve">
<path fill="#FFFFFF" opacity="1.000000" stroke="none" 
	d="
M129.000000,44.000000 
	C129.000000,72.278481 129.000000,100.556953 129.000000,128.917725 
	C86.333420,128.917725 43.666737,128.917725 1.000026,128.915527 
	C1.000000,123.923027 1.000000,118.932716 1.343331,113.550972 
	C5.189269,119.992760 11.575160,121.867500 18.372528,121.914833 
	C47.190407,122.115501 76.010719,122.063789 104.829628,121.961105 
	C113.490173,121.930252 119.570747,118.194725 121.436157,110.817619 
	C122.623810,106.120827 122.101906,100.924126 121.855011,95.976105 
	C121.786667,94.606247 120.207222,92.607735 118.887535,92.151390 
	C116.165504,91.210091 115.194229,93.505959 115.058586,95.711212 
	C114.854416,99.030472 114.688927,102.407570 115.069267,105.695038 
	C115.732574,111.428246 111.848373,114.859230 106.238373,114.899391 
	C76.421112,115.112892 46.601364,115.048485 16.782841,114.959442 
	C10.702352,114.941284 7.071544,111.306587 7.041529,105.231537 
	C6.935360,83.742546 6.948149,62.252495 7.036648,40.763340 
	C7.058860,35.369862 10.815761,32.016411 16.300032,32.002758 
	C21.464148,31.989901 26.629847,31.924938 31.791857,32.030003 
	C34.593220,32.087025 37.765450,31.989023 37.821178,28.629635 
	C37.884613,24.805494 34.454140,24.943422 31.557560,24.984812 
	C27.393776,25.044308 23.196753,25.328690 19.070627,24.930071 
	C11.025527,24.152843 5.390028,27.725899 1.000000,34.000000 
	C1.000000,23.024233 1.000000,12.048465 1.000000,1.036348 
	C43.548416,1.036348 86.096870,1.036348 129.000000,1.036348 
	C129.000000,13.351965 129.000000,25.707325 128.668625,38.461243 
	C119.171478,29.675476 110.084885,20.409222 100.755913,11.393778 
	C99.331078,10.016839 96.785446,9.799680 94.758194,9.046104 
	C94.172127,10.779006 93.183640,12.488273 93.080193,14.249523 
	C92.832169,18.472452 93.000000,22.719807 93.000000,27.044012 
	C83.822815,26.454382 75.924850,28.986557 69.674606,34.135174 
	C56.392780,45.076027 51.717113,59.771378 54.120193,76.681808 
	C54.321156,78.096008 55.857506,79.876060 57.190121,80.376450 
	C58.063335,80.704346 60.016899,79.299324 60.907463,78.200882 
	C62.817589,75.844894 64.104294,72.969025 66.086143,70.688240 
	C73.079628,62.639866 81.003487,56.249493 93.000008,57.074959 
	C93.000008,61.363323 92.750984,65.347435 93.107559,69.276596 
	C93.279747,71.174057 94.590836,72.968163 95.386246,74.809067 
	C97.004005,73.958786 98.927567,73.425697 100.190903,72.207779 
	C109.866272,62.880222 119.413177,53.419403 129.000000,44.000000 
z"/>
<path fill="#000000" opacity="1.000000" stroke="none" 
	d="
M1.000000,34.468658 
	C5.390028,27.725899 11.025527,24.152843 19.070627,24.930071 
	C23.196753,25.328690 27.393776,25.044308 31.557560,24.984812 
	C34.454140,24.943422 37.884613,24.805494 37.821178,28.629635 
	C37.765450,31.989023 34.593220,32.087025 31.791857,32.030003 
	C26.629847,31.924938 21.464148,31.989901 16.300032,32.002758 
	C10.815761,32.016411 7.058860,35.369862 7.036648,40.763340 
	C6.948149,62.252495 6.935360,83.742546 7.041529,105.231537 
	C7.071544,111.306587 10.702352,114.941284 16.782841,114.959442 
	C46.601364,115.048485 76.421112,115.112892 106.238373,114.899391 
	C111.848373,114.859230 115.732574,111.428246 115.069267,105.695038 
	C114.688927,102.407570 114.854416,99.030472 115.058586,95.711212 
	C115.194229,93.505959 116.165504,91.210091 118.887535,92.151390 
	C120.207222,92.607735 121.786667,94.606247 121.855011,95.976105 
	C122.101906,100.924126 122.623810,106.120827 121.436157,110.817619 
	C119.570747,118.194725 113.490173,121.930252 104.829628,121.961105 
	C76.010719,122.063789 47.190407,122.115501 18.372528,121.914833 
	C11.575160,121.867500 5.189269,119.992760 1.343331,113.079773 
	C1.000000,86.979103 1.000000,60.958210 1.000000,34.468658 
z"/>
<path fill="#000000" opacity="1.000000" stroke="none" 
	d="
M129.000000,43.583336 
	C119.413177,53.419403 109.866272,62.880222 100.190903,72.207779 
	C98.927567,73.425697 97.004005,73.958786 95.386246,74.809067 
	C94.590836,72.968163 93.279747,71.174057 93.107559,69.276596 
	C92.750984,65.347435 93.000008,61.363323 93.000008,57.074959 
	C81.003487,56.249493 73.079628,62.639866 66.086143,70.688240 
	C64.104294,72.969025 62.817589,75.844894 60.907463,78.200882 
	C60.016899,79.299324 58.063335,80.704346 57.190121,80.376450 
	C55.857506,79.876060 54.321156,78.096008 54.120193,76.681808 
	C51.717113,59.771378 56.392780,45.076027 69.674606,34.135174 
	C75.924850,28.986557 83.822815,26.454382 93.000000,27.044012 
	C93.000000,22.719807 92.832169,18.472452 93.080193,14.249523 
	C93.183640,12.488273 94.172127,10.779006 94.758194,9.046104 
	C96.785446,9.799680 99.331078,10.016839 100.755913,11.393778 
	C110.084885,20.409222 119.171478,29.675476 128.668625,38.929901 
	C129.000000,40.388889 129.000000,41.777779 129.000000,43.583336 
M62.105713,64.329460 
	C68.457977,57.302479 76.195450,52.572533 85.391129,50.234177 
	C96.574242,47.390438 99.855667,49.812767 100.009262,61.054058 
	C100.016739,61.600632 100.142441,62.145596 100.297096,63.340263 
	C107.466797,55.669952 114.116272,48.556194 120.351936,41.885147 
	C113.683983,35.218597 106.921700,28.457739 100.263069,21.800516 
	C100.009056,24.657309 100.852692,28.873024 99.133621,30.787027 
	C97.281647,32.849007 93.030174,32.759567 89.822472,33.596970 
	C89.202927,33.758709 88.575180,33.928146 87.941116,33.989452 
	C72.327370,35.499016 60.826694,51.683388 60.289883,64.187202 
	C60.246799,65.021339 60.203720,65.855476 60.105087,67.765083 
	C60.931408,66.096771 61.260586,65.432182 62.105713,64.329460 
z"/>
<path fill="#FFFFFF" opacity="1.000000" stroke="none" 
	d="
M60.917595,63.927662 
	C60.826694,51.683388 72.327370,35.499016 87.941116,33.989452 
	C88.575180,33.928146 89.202927,33.758709 89.822472,33.596970 
	C93.030174,32.759567 97.281647,32.849007 99.133621,30.787027 
	C100.852692,28.873024 100.009056,24.657309 100.263069,21.800516 
	C106.921700,28.457739 113.683983,35.218597 120.351936,41.885147 
	C114.116272,48.556194 107.466797,55.669952 100.297096,63.340263 
	C100.142441,62.145596 100.016739,61.600632 100.009262,61.054058 
	C99.855667,49.812767 96.574242,47.390438 85.391129,50.234177 
	C76.195450,52.572533 68.457977,57.302479 61.688286,64.331665 
	C61.153103,64.198471 61.035351,64.063065 60.917595,63.927662 
z"/>
<path fill="#FFFFFF" opacity="1.000000" stroke="none" 
	d="
M61.430305,64.550735 
	C61.260586,65.432182 60.931408,66.096771 60.105087,67.765083 
	C60.203720,65.855476 60.246799,65.021339 60.603737,64.057434 
	C61.035351,64.063065 61.153103,64.198471 61.430305,64.550735 
z"/>
</svg>